<svg width="41" height="42" viewBox="0 0 41 42" fill="none" xmlns="http://www.w3.org/2000/svg">
<path d="M23.36 22.68L25.44 19.08L19.38 13H13.24L4.86 27.42C4.02 25.44 3.56 23.28 3.56 21C3.56 11.86 10.96 4.46 20.1 4.46C24.44 4.46 28.4 6.14 31.34 8.88L33.16 5.74C29.64 2.74 25.08 0.920001 20.1 0.920001C9 0.900001 0 9.9 0 21C0 26.26 2.02 31.04 5.32 34.62L6.22 33.06L16.3 15.62L23.36 22.68Z" fill="url(#paint0_linear_486_2919)"/>
<path d="M34.68 7.18001L33.66 8.94001L33.54 9.16001L32.82 10.42L23.74 26.16L16.6 19.02L14.52 22.62L20.92 29.02H26.7L35.22 14.26C36.14 16.32 36.64 18.58 36.64 20.98C36.64 30.12 29.24 37.52 20.1 37.52C15.62 37.52 11.58 35.74 8.6 32.86L6.78 36.02C10.32 39.16 15 41.08 20.1 41.08C31.2 41.08 40.2 32.08 40.2 20.98C40.2 15.64 38.1 10.78 34.68 7.18001Z" fill="url(#paint1_linear_486_2919)"/>
<defs>
<linearGradient id="paint0_linear_486_2919" x1="3.50172" y1="17.7629" x2="36.6598" y2="17.7629" gradientUnits="userSpaceOnUse">
<stop stop-color="#EF426F"/>
<stop offset="1" stop-color="#514689"/>
</linearGradient>
<linearGradient id="paint1_linear_486_2919" x1="3.50172" y1="24.1361" x2="36.6359" y2="24.1361" gradientUnits="userSpaceOnUse">
<stop stop-color="#EF426F"/>
<stop offset="1" stop-color="#514689"/>
</linearGradient>
</defs>
</svg>
