<svg width="322" height="73" viewBox="0 0 322 73" fill="none"
    xmlns="http://www.w3.org/2000/svg">
    <path d="M134.834 34.542C134.834 28.49 131.488 25.2504 126.468 25.2504C121.306 25.2504 117.96 28.5256 117.96 34.542V55.3324H108.454V17.6676H117.96V22.3668C120.416 19.1628 124.474 17.1336 129.316 17.1336C138.074 17.1336 144.339 22.8296 144.339 33.2248V55.2968H134.834V34.542Z" fill="#041E42"/>
    <path d="M187.878 55.3324H178.302V50.562C175.916 53.766 171.787 55.7952 167.088 55.7952C158.33 55.7952 151.993 50.0992 151.993 39.7752V17.7032H161.498V38.4224C161.498 44.4744 164.845 47.714 169.864 47.714C175.026 47.714 178.302 44.4388 178.302 38.4224V17.6676H187.878V55.3324V55.3324Z" fill="#041E42"/>
    <path d="M205.892 55.3324H196.386V17.6676H205.892V23.506C208.277 19.6256 212.193 17.1336 217.426 17.1336V27.1372H214.898C209.274 27.1372 205.856 29.3088 205.856 36.5712V55.3324H205.892Z" fill="#041E42"/>
    <path d="M237.504 17.0624C243.556 17.0624 247.686 19.9104 249.929 23.0432V17.6676H259.505V55.2968H249.929V49.7788C247.686 53.054 243.414 55.902 237.433 55.902C227.928 55.902 220.31 48.07 220.31 36.322C220.31 24.6096 227.928 17.0624 237.504 17.0624ZM239.961 25.4284C234.87 25.4284 230.028 29.2376 230.028 36.3576C230.028 43.4776 234.834 47.5716 239.961 47.5716C245.194 47.5716 249.964 43.62 249.964 36.5C249.964 29.38 245.194 25.4284 239.961 25.4284Z" fill="#041E42"/>
    <path d="M267.978 4.42441H277.483V55.3324H267.978V4.42441Z" fill="#041E42"/>
    <path d="M302.652 55.9376C291.723 55.9376 283.749 48.3192 283.749 36.5C283.749 24.6096 291.51 17.0624 302.652 17.0624C313.51 17.0624 321.2 24.4672 321.2 35.6812C321.2 36.8916 321.129 38.1376 320.915 39.348H293.396C293.859 44.9016 297.668 48.0344 302.439 48.0344C306.533 48.0344 308.74 46.0052 309.986 43.4776H320.239C318.21 50.4196 311.944 55.9376 302.652 55.9376ZM293.468 32.9756H311.339C311.196 28.0272 307.28 24.8944 302.368 24.8944C297.846 24.8944 294.215 27.8136 293.468 32.9756Z" fill="#041E42"/>
    <path d="M42.3808 39.4904L46.0832 33.0824L35.2964 22.26H24.3672L9.45085 47.9276C7.95565 44.4032 7.13685 40.5584 7.13685 36.5C7.13685 20.2308 20.3088 7.0588 36.578 7.0588C44.3032 7.0588 51.352 10.0492 56.5852 14.9264L59.8248 9.3372C53.5592 3.9972 45.4424 0.757597 36.578 0.757597C16.82 0.721997 0.800049 16.742 0.800049 36.5C0.800049 45.8628 4.39565 54.3712 10.2696 60.7436L11.8716 57.9668L29.814 26.9236L42.3808 39.4904Z" fill="url(#paint0_linear_25_299)"/>
    <path d="M62.5304 11.9004L60.7148 15.0332L60.5012 15.4248L59.2196 17.6676L43.0572 45.6848L30.348 32.9756L26.6456 39.3836L38.0376 50.7756H48.326L63.4916 24.5028C65.1292 28.1696 66.0192 32.1924 66.0192 36.4644C66.0192 52.7336 52.8472 65.9056 36.578 65.9056C28.6036 65.9056 21.4124 62.7372 16.108 57.6108L12.8684 63.2356C19.1696 68.8248 27.5 72.2424 36.578 72.2424C56.336 72.2424 72.356 56.2224 72.356 36.4644C72.356 26.9592 68.618 18.3084 62.5304 11.9004Z" fill="url(#paint1_linear_25_299)"/>
    <defs>
        <linearGradient id="paint0_linear_25_299" x1="7.03311" y1="30.738" x2="66.0546" y2="30.738" gradientUnits="userSpaceOnUse">
            <stop stop-color="#EF426F"/>
            <stop offset="1" stop-color="#514689"/>
        </linearGradient>
        <linearGradient id="paint1_linear_25_299" x1="7.03307" y1="42.0822" x2="66.012" y2="42.0822" gradientUnits="userSpaceOnUse">
            <stop stop-color="#EF426F"/>
            <stop offset="1" stop-color="#514689"/>
        </linearGradient>
    </defs>
</svg>
