<svg width="344" height="344" viewBox="0 0 344 344" fill="none" xmlns="http://www.w3.org/2000/svg">
<path d="M199.638 185.965L217.414 155.199L165.625 103.238H113.151L41.5344 226.474C34.3556 209.552 30.4244 191.093 30.4244 171.607C30.4244 93.4954 93.666 30.2537 171.778 30.2537C208.868 30.2537 242.711 44.6113 267.837 68.0278L283.391 41.1928C253.308 15.5543 214.338 0.000284321 171.778 0.000284321C76.9155 -0.170639 0 76.7449 0 171.607C0 216.56 17.2633 257.411 45.4656 288.006L53.1572 274.674L139.303 125.629L199.638 185.965Z" fill="white"/>
<path d="M296.381 53.4994L287.664 68.5406L286.638 70.4208L280.485 81.189L202.886 215.706L141.866 154.686L124.09 185.452L178.786 240.148H228.183L300.996 114.006C308.858 131.611 313.131 150.926 313.131 171.437C313.131 249.549 249.89 312.79 171.778 312.79C133.491 312.79 98.9645 297.578 73.4969 272.965L57.9429 299.971C88.1963 326.806 128.192 343.215 171.778 343.215C266.64 343.215 343.556 266.299 343.556 171.437C343.556 125.8 325.609 84.2656 296.381 53.4994Z" fill="white"/>
</svg>
